<svg width="76" height="32" viewBox="0 0 76 32" fill="none" xmlns="http://www.w3.org/2000/svg">
<path fill-rule="evenodd" clip-rule="evenodd" d="M38.892 16.3403C39.9748 16.3403 40.8451 16.6603 41.5043 17.3003C42.1635 17.9403 42.4931 18.9058 42.4931 20.198V25.1593H39.4381V20.6942C39.4381 19.5091 38.9614 18.918 38.008 18.918C37.4823 18.918 37.0614 19.0888 36.7455 19.4305C36.4295 19.7722 36.2715 20.2847 36.2715 20.9668V25.1607H33.2165V16.4854H34.6711L36.1257 17.4291C36.469 17.0766 36.8762 16.8081 37.3475 16.621C37.8187 16.4339 38.3336 16.3417 38.8906 16.3417L38.892 16.3403Z" fill="white"/>
<path fill-rule="evenodd" clip-rule="evenodd" d="M53.6414 16.4842V23.5743C53.6414 29.8089 46.529 30.4299 42.9442 27.4645L44.2477 25.1432C46.258 27.0943 50.5864 27.2137 50.5864 23.6869C49.9967 24.3703 49.1345 24.712 47.9986 24.712C47.2264 24.712 46.514 24.5384 45.8603 24.1913C45.2065 23.8442 44.6862 23.3533 44.3008 22.7187C43.9153 22.0842 43.7219 21.3506 43.7219 20.5181C43.7219 19.6855 43.9153 18.9682 44.3008 18.3337C44.6862 17.6991 45.2065 17.2082 45.8603 16.8611C46.514 16.514 47.2277 16.3418 47.9986 16.3418C49.2421 16.3418 50.1533 16.7418 50.7322 17.5418L52.1868 16.4855H53.6414V16.4842ZM48.7218 22.2943C49.268 22.2943 49.7216 22.1289 50.0798 21.7981C50.4393 21.4672 50.6178 21.0401 50.6178 20.5181C50.6178 19.996 50.4407 19.5716 50.0866 19.2462C49.7325 18.9208 49.2775 18.7581 48.7205 18.7581C48.1634 18.7581 47.7044 18.9208 47.3462 19.2462C46.9867 19.5716 46.8082 19.996 46.8082 20.5181C46.8082 21.0401 46.9907 21.4672 47.3544 21.7981C47.7194 22.1289 48.1743 22.2943 48.7205 22.2943H48.7218Z" fill="white"/>
<path fill-rule="evenodd" clip-rule="evenodd" d="M59.0494 16.3403C60.4959 16.3403 61.6005 16.6685 62.3618 17.3247C63.1232 17.981 63.5032 18.9871 63.5032 20.3417V25.1593H62.0799L60.6566 24.0393C60.2167 24.8827 59.36 25.303 58.0838 25.303C57.4082 25.303 56.8239 25.1864 56.3309 24.9505C55.8378 24.7159 55.466 24.3986 55.214 23.9986C54.962 23.5986 54.8367 23.1417 54.8367 22.6305C54.8367 21.8088 55.1527 21.1715 55.7861 20.7186C56.418 20.2644 57.3932 20.038 58.7116 20.038H60.4482C60.3951 19.12 59.7781 18.6617 58.6 18.6617C58.1818 18.6617 57.7582 18.7281 57.3306 18.8624C56.9015 18.9952 56.5379 19.1797 56.2369 19.4142L55.2086 17.3491C55.6907 17.0291 56.2777 16.781 56.9683 16.6047C57.6602 16.4285 58.3534 16.3403 59.0508 16.3403H59.0494ZM58.9364 23.383C59.2905 23.383 59.601 23.2976 59.8693 23.1268C60.1377 22.9559 60.3297 22.7051 60.4482 22.3742V21.6217H59.1298C58.2404 21.6217 57.795 21.9159 57.795 22.5017C57.795 22.7688 57.8972 22.9817 58.1001 23.1417C58.303 23.3017 58.5823 23.3817 58.9364 23.3817V23.383Z" fill="white"/>
<path fill-rule="evenodd" clip-rule="evenodd" d="M62.6741 27.9595L63.4464 25.7981C64.3603 26.3581 65.2946 26.0652 65.2946 24.9181V18.0042H64.4475V16.4829H68.3496V24.9344C68.3496 28.3323 65.0222 29.2951 62.6741 27.9595ZM66.8228 15.5229C65.8462 15.5229 64.9582 14.6849 64.9582 13.6408C64.9582 12.5968 65.8462 11.7588 66.8228 11.7588C67.7994 11.7588 68.6874 12.5452 68.6874 13.5934C68.6874 14.6415 67.8307 15.5229 66.8228 15.5229Z" fill="white"/>
<path fill-rule="evenodd" clip-rule="evenodd" d="M70.0452 16.4838H73.1001V25.1591H70.0452V18.0052H69.198V16.4838H70.0452ZM71.5733 15.5238C70.5968 15.5238 69.7088 14.6859 69.7088 13.6418C69.7088 12.5977 70.5981 11.7598 71.5733 11.7598C72.5485 11.7598 73.4379 12.5462 73.4379 13.5943C73.4379 14.6425 72.5812 15.5238 71.5733 15.5238Z" fill="white"/>
<path fill-rule="evenodd" clip-rule="evenodd" d="M2.53729 1.51855H11.1343C13.4252 1.51855 15.3579 2.58703 16.4121 4.1572C17.4663 2.58703 19.399 1.51855 21.6899 1.51855H30.2868V27.5538H21.6899C19.2559 27.5538 17.0699 30.065 16.4121 31.0887C15.7706 30.0365 13.5682 27.5538 11.1343 27.5538H2.53729V1.51855ZM16.4121 8.305C15.7706 7.25279 13.5682 4.77008 11.1343 4.77008H5.80339V24.3009H11.1343C13.4252 24.3009 15.3579 25.3694 16.4121 26.9396C17.4663 25.3694 19.399 24.3009 21.6899 24.3009H27.0207V4.77142H21.6899C19.2559 4.77142 17.0699 7.28261 16.4121 8.30634V8.305Z" fill="white"/>
<path fill-rule="evenodd" clip-rule="evenodd" d="M11.6546 12.7497C11.6546 11.4059 10.6236 10.328 8.38855 10.5937V12.7497C8.38855 15.1144 9.42095 17.2392 11.0622 18.7022C12.6394 20.2724 15.4547 20.9992 16.4135 24.0297C17.3724 20.9992 20.1876 20.2724 21.7648 18.7022C23.4047 17.2392 24.4385 15.1158 24.4385 12.7497V10.5937C22.2021 10.328 21.1724 11.4059 21.1724 12.7497C21.1724 15.3653 19.0422 17.486 16.4149 17.486C13.7876 17.486 11.6574 15.3653 11.6574 12.7497H11.6546ZM16.4122 9.63916C18.1378 9.63916 19.5366 11.0317 19.5366 12.7497C19.5366 14.4677 18.1378 15.8602 16.4122 15.8602C14.6865 15.8602 13.2877 14.4677 13.2877 12.7497C13.2877 11.0317 14.6865 9.63916 16.4122 9.63916Z" fill="white"/>
<path d="M44.5461 10.7582H42.4595V9.2802H46.7539C46.7103 9.80765 46.709 10.331 46.6191 10.8395C46.1751 13.348 44.1457 14.7392 42.01 15.0131C40.8619 15.1609 39.7219 15.1256 38.5996 14.826C36.7868 14.3419 35.6059 13.1487 34.9753 11.4416C34.2275 9.41714 34.3338 7.42121 35.5078 5.56087C36.4081 4.13172 37.7388 3.34392 39.4195 3.13647C40.9613 2.94664 42.435 3.12155 43.7807 3.95681C44.0354 4.11545 44.271 4.30257 44.5461 4.50053V3.26257H46.0307V7.08087C45.569 7.08087 45.1004 7.08494 44.6319 7.07545C44.5842 7.07545 44.5243 6.99816 44.493 6.94392C43.8324 5.76426 42.849 4.97782 41.5211 4.71884C39.0899 4.24562 37.1599 5.47409 36.5974 7.88087C36.3141 9.09308 36.4027 10.308 37.0401 11.409C37.8042 12.7297 38.9796 13.4429 40.5187 13.5338C41.7118 13.6043 42.7687 13.2666 43.6554 12.4612C44.1498 12.011 44.4467 11.447 44.5461 10.7595V10.7582Z" fill="white"/>
<path d="M56.7566 10.8813C56.8329 13.4467 54.6932 15.1593 52.4636 15.1552C50.1046 15.1512 48.1011 13.3179 48.1773 10.701C48.2454 8.37014 50.0854 6.55183 52.4866 6.55861C54.8006 6.56539 56.852 8.33353 56.7566 10.8813ZM49.8744 10.8393C49.903 11.0752 49.9153 11.3139 49.9602 11.5471C50.3279 13.4129 52.6311 14.2278 54.098 13.0088C54.8907 12.3512 55.1236 11.4834 55.0446 10.4881C54.9166 8.8637 53.259 7.75319 51.694 8.23183C50.7338 8.52471 49.8472 9.56743 49.8744 10.8406V10.8393Z" fill="white"/>
</svg>
