<svg width="179" height="58" viewBox="0 0 179 58" fill="none" xmlns="http://www.w3.org/2000/svg">
<g clip-path="url(#clip0_82_1525)">
<path d="M149.312 0.214966H29.232C13.3152 0.214966 0.412003 13.1179 0.412003 29.0345C0.412003 44.951 13.3152 57.854 29.232 57.854H149.312C165.229 57.854 178.132 44.951 178.132 29.0345C178.132 13.1179 165.229 0.214966 149.312 0.214966Z" fill="#876AFF"/>
<path d="M40.244 27.403L28.39 16.173V15.582L43.8 23.857L40.244 27.403ZM45.579 25.039L41.429 28.585L45.579 32.132L49.135 30.358C51.032 29.413 50.321 27.994 49.728 27.403L45.58 25.04L45.579 25.039ZM26.611 39.815C26.414 32.525 26.137 17.828 26.611 17.355C26.611 16.41 27.401 17.355 27.797 17.946L38.466 28.586L28.39 38.632C26.967 40.051 26.611 40.013 26.611 39.815ZM40.244 29.767L28.39 40.997C27.391 41.943 28.764 41.392 29.575 40.997L43.8 33.314L40.244 29.767ZM64.77 23.82V15.232H67.584C68.452 15.232 69.209 15.409 69.854 15.762C70.4895 16.1047 71.0109 16.6257 71.354 17.261C71.707 17.899 71.884 18.652 71.884 19.521C71.884 20.381 71.707 21.134 71.354 21.78C71.009 22.4167 70.4884 22.9408 69.854 23.29C69.209 23.644 68.452 23.82 67.584 23.82H64.77ZM65.9 22.783H67.595C68.233 22.783 68.782 22.648 69.244 22.379C69.7072 22.1156 70.0836 21.723 70.327 21.249C70.581 20.758 70.707 20.181 70.707 19.52C70.707 18.852 70.577 18.275 70.316 17.791C70.0739 17.3188 69.6965 16.9296 69.232 16.673C68.771 16.404 68.225 16.27 67.595 16.27H65.9V22.783ZM74.931 23.959C74.5579 23.9659 74.1879 23.8908 73.847 23.739C73.5549 23.5985 73.3047 23.384 73.121 23.117C72.9429 22.8429 72.8506 22.5219 72.856 22.195C72.856 21.865 72.926 21.568 73.064 21.307C73.21 21.038 73.433 20.812 73.732 20.627C74.04 20.443 74.424 20.312 74.885 20.235L77.19 19.855V20.754L75.127 21.1C74.727 21.169 74.435 21.296 74.251 21.48C74.164 21.5701 74.0958 21.6767 74.0503 21.7934C74.0048 21.9101 73.9829 22.0347 73.986 22.16C73.986 22.414 74.086 22.625 74.286 22.794C74.493 22.964 74.751 23.048 75.058 23.048C75.45 23.048 75.788 22.968 76.072 22.806C76.364 22.636 76.592 22.41 76.752 22.126C76.922 21.841 77.006 21.526 77.006 21.18V19.601C77.006 19.263 76.879 18.991 76.626 18.783C76.38 18.567 76.053 18.46 75.646 18.46C75.292 18.46 74.977 18.552 74.701 18.737C74.4346 18.9102 74.2258 19.1588 74.101 19.451L73.167 18.967C73.283 18.683 73.467 18.429 73.721 18.207C74.2574 17.7296 74.951 17.4669 75.669 17.469C76.145 17.469 76.564 17.561 76.925 17.745C77.287 17.922 77.567 18.172 77.767 18.495C77.974 18.81 78.078 19.178 78.078 19.601V23.821H77.03V22.644L77.226 22.714C77.096 22.96 76.919 23.174 76.696 23.359C76.473 23.544 76.212 23.689 75.912 23.797C75.612 23.905 75.285 23.959 74.931 23.959ZM79.741 26.126V17.606H80.79V18.944L80.651 18.679C80.881 18.31 81.197 18.018 81.596 17.803C81.996 17.58 82.453 17.468 82.968 17.468C83.552 17.468 84.075 17.611 84.536 17.895C85.005 18.179 85.374 18.567 85.643 19.059C85.912 19.544 86.046 20.097 86.046 20.719C86.0541 21.294 85.9154 21.8616 85.643 22.368C85.373 22.86 85.005 23.248 84.536 23.532C84.0602 23.8207 83.5124 23.9687 82.956 23.959C82.457 23.959 82 23.847 81.585 23.624C81.1846 23.4079 80.8561 23.0794 80.64 22.679L80.812 22.495V26.125H79.74L79.741 26.126ZM82.876 22.921C83.2412 22.9268 83.6006 22.8292 83.9127 22.6395C84.2248 22.4499 84.4769 22.1758 84.64 21.849C84.817 21.511 84.905 21.134 84.905 20.719C84.905 20.289 84.817 19.912 84.64 19.589C84.4783 19.2671 84.2309 18.9961 83.925 18.806C83.618 18.606 83.268 18.506 82.876 18.506C82.484 18.506 82.13 18.602 81.816 18.794C81.5046 18.9902 81.2502 19.2647 81.078 19.59C80.901 19.92 80.812 20.297 80.812 20.72C80.812 21.134 80.901 21.51 81.078 21.85C81.262 22.18 81.508 22.44 81.815 22.633C82.131 22.825 82.484 22.921 82.876 22.921ZM89.273 23.959C88.9003 23.9657 88.5306 23.8906 88.19 23.739C87.8976 23.5986 87.6469 23.3842 87.463 23.117C87.2849 22.8429 87.1926 22.5219 87.198 22.195C87.198 21.865 87.268 21.568 87.406 21.307C87.552 21.038 87.775 20.812 88.074 20.627C88.382 20.443 88.766 20.312 89.227 20.235L91.533 19.855V20.754L89.469 21.1C89.069 21.169 88.778 21.296 88.593 21.48C88.506 21.5701 88.4377 21.6766 88.3922 21.7934C88.3467 21.9101 88.3249 22.0347 88.328 22.16C88.328 22.414 88.428 22.625 88.628 22.794C88.835 22.964 89.093 23.048 89.4 23.048C89.792 23.048 90.13 22.968 90.414 22.806C90.707 22.636 90.934 22.41 91.094 22.126C91.264 21.841 91.348 21.526 91.348 21.18V19.601C91.348 19.263 91.222 18.991 90.968 18.783C90.722 18.567 90.395 18.46 89.988 18.46C89.635 18.46 89.319 18.552 89.043 18.737C88.7766 18.9102 88.5678 19.1588 88.443 19.451L87.51 18.967C87.625 18.683 87.81 18.429 88.063 18.207C88.5994 17.7296 89.293 17.4669 90.011 17.469C90.488 17.469 90.906 17.561 91.268 17.745C91.628 17.922 91.909 18.172 92.109 18.495C92.317 18.81 92.42 19.178 92.42 19.601V23.821H91.371V22.644L91.567 22.714C91.437 22.96 91.26 23.174 91.037 23.359C90.814 23.544 90.553 23.689 90.253 23.797C89.953 23.905 89.627 23.959 89.273 23.959ZM96.495 23.889C95.887 23.889 95.419 23.717 95.088 23.371C94.766 23.025 94.604 22.537 94.604 21.907V18.633H93.474V17.607H93.704C93.982 17.607 94.201 17.522 94.362 17.353C94.523 17.184 94.604 16.961 94.604 16.685V16.177H95.676V17.607H97.071V18.633H95.676V21.873C95.676 22.08 95.706 22.26 95.768 22.413C95.838 22.568 95.949 22.691 96.103 22.783C96.256 22.867 96.46 22.91 96.713 22.91C96.768 22.91 96.833 22.906 96.91 22.898C96.994 22.89 97.071 22.883 97.14 22.875V23.82C97.0301 23.8444 96.9184 23.8598 96.806 23.866C96.7029 23.8803 96.5991 23.8873 96.495 23.889ZM98.541 23.82V15.094H99.613V21.077L99.175 20.973L102.472 17.607H103.843L101.457 20.108L104.005 23.82H102.737L100.408 20.454L101.077 20.42L99.267 22.31L99.613 21.526V23.82H98.541ZM106.79 23.959C106.383 23.959 106.022 23.886 105.707 23.739C105.415 23.5986 105.164 23.3842 104.98 23.117C104.802 22.8428 104.71 22.5218 104.715 22.195C104.715 21.865 104.784 21.568 104.923 21.307C105.069 21.038 105.292 20.812 105.591 20.627C105.899 20.443 106.283 20.312 106.744 20.235L109.05 19.855V20.754L106.986 21.1C106.586 21.169 106.294 21.296 106.11 21.48C106.023 21.5701 105.955 21.6766 105.909 21.7934C105.864 21.9101 105.842 22.0347 105.845 22.16C105.845 22.414 105.945 22.625 106.145 22.794C106.352 22.964 106.61 23.048 106.917 23.048C107.309 23.048 107.647 22.968 107.931 22.806C108.223 22.636 108.45 22.41 108.612 22.126C108.781 21.841 108.865 21.526 108.865 21.18V19.601C108.865 19.263 108.738 18.991 108.485 18.783C108.239 18.567 107.912 18.46 107.505 18.46C107.179 18.4551 106.858 18.5464 106.583 18.7227C106.308 18.8989 106.092 19.1523 105.96 19.451L105.026 18.967C105.142 18.683 105.326 18.429 105.58 18.207C106.117 17.73 106.81 17.4672 107.528 17.469C108.004 17.469 108.423 17.561 108.784 17.745C109.146 17.922 109.426 18.172 109.626 18.495C109.833 18.81 109.937 19.178 109.937 19.601V23.821H108.888V22.644L109.084 22.714C108.954 22.96 108.777 23.174 108.554 23.359C108.331 23.544 108.07 23.689 107.77 23.797C107.47 23.905 107.144 23.959 106.79 23.959ZM111.599 23.82V17.607H112.649V18.817L112.476 18.713C112.629 18.322 112.875 18.018 113.213 17.803C113.559 17.58 113.963 17.468 114.424 17.468C114.87 17.468 115.265 17.568 115.611 17.768C115.965 17.968 116.241 18.245 116.441 18.598C116.649 18.952 116.752 19.351 116.752 19.798V23.82H115.669V20.143C115.669 19.797 115.607 19.505 115.484 19.267C115.366 19.034 115.182 18.8415 114.954 18.714C114.722 18.5729 114.454 18.5007 114.182 18.506C113.89 18.506 113.628 18.576 113.398 18.713C113.175 18.844 112.998 19.033 112.868 19.278C112.737 19.517 112.672 19.805 112.672 20.143V23.82H111.599ZM123.103 23.959C122.519 23.959 121.993 23.817 121.524 23.532C121.063 23.2474 120.685 22.8458 120.429 22.368C120.156 21.8617 120.017 21.2941 120.025 20.719C120.025 20.097 120.16 19.544 120.429 19.059C120.698 18.567 121.063 18.179 121.524 17.895C122 17.6084 122.547 17.4605 123.103 17.468C123.618 17.468 124.076 17.58 124.475 17.803C124.875 18.018 125.19 18.31 125.421 18.679L125.248 18.944V15.094H126.331V23.82H125.282V22.495L125.421 22.679C125.209 23.0826 124.879 23.4122 124.475 23.624C124.054 23.8507 123.581 23.966 123.103 23.959ZM123.196 22.921C123.588 22.921 123.937 22.825 124.245 22.633C124.552 22.441 124.794 22.18 124.971 21.849C125.155 21.511 125.248 21.134 125.248 20.719C125.248 20.297 125.155 19.92 124.971 19.589C124.805 19.2633 124.554 18.9886 124.245 18.794C123.93 18.5999 123.566 18.5 123.196 18.506C122.811 18.506 122.462 18.606 122.147 18.806C121.839 18.998 121.588 19.2687 121.42 19.59C121.244 19.912 121.155 20.289 121.155 20.72C121.155 21.134 121.244 21.51 121.42 21.85C121.597 22.18 121.839 22.44 122.147 22.633C122.454 22.825 122.804 22.921 123.196 22.921ZM127.991 23.821V17.607H129.063V23.82L127.991 23.821ZM127.991 16.615V15.232H129.063V16.615H127.991ZM70.346 42.259C69.526 42.259 68.768 42.11 68.072 41.813C67.3856 41.5233 66.7635 41.1001 66.242 40.568C65.7147 40.0283 65.297 39.3916 65.012 38.693C64.7192 37.9438 64.5732 37.1453 64.582 36.341C64.582 35.491 64.721 34.707 64.998 33.989C65.2667 33.2896 65.6742 32.6518 66.196 32.114C66.7155 31.5832 67.3383 31.1646 68.026 30.884C68.7458 30.5825 69.5196 30.4311 70.3 30.439C71.12 30.439 71.853 30.577 72.498 30.854C73.154 31.131 73.708 31.499 74.158 31.961C74.609 32.411 74.932 32.908 75.127 33.451L73.267 34.343C73.0608 33.7605 72.6798 33.2558 72.176 32.898C71.663 32.529 71.038 32.345 70.3 32.345C69.583 32.345 68.948 32.514 68.394 32.852C67.8489 33.1928 67.4079 33.6767 67.119 34.251C66.821 34.845 66.673 35.541 66.673 36.341C66.673 37.141 66.827 37.842 67.134 38.447C67.452 39.041 67.887 39.507 68.44 39.845C68.994 40.184 69.63 40.353 70.346 40.353C70.93 40.353 71.468 40.24 71.96 40.015C72.4332 39.795 72.8411 39.4559 73.144 39.031C73.441 38.601 73.589 38.093 73.589 37.509V36.633L74.543 37.463H70.3V35.696H75.68V36.848C75.68 37.73 75.531 38.508 75.234 39.185C74.9563 39.8341 74.5423 40.4159 74.02 40.891C73.518 41.341 72.95 41.685 72.314 41.921C71.6823 42.1458 71.0165 42.2601 70.346 42.259ZM81.253 42.259C80.4682 42.2678 79.6948 42.0717 79.009 41.69C78.3515 41.319 77.8011 40.7844 77.411 40.138C77.021 39.482 76.827 38.734 76.827 37.894C76.827 37.054 77.022 36.305 77.411 35.649C77.811 34.994 78.343 34.476 79.009 34.097C79.675 33.717 80.424 33.528 81.254 33.528C82.074 33.528 82.816 33.718 83.482 34.097C84.148 34.477 84.676 34.994 85.065 35.649C85.465 36.295 85.665 37.043 85.665 37.894C85.665 38.734 85.465 39.482 85.065 40.138C84.6692 40.7928 84.1093 41.3328 83.4407 41.7048C82.7722 42.0768 82.018 42.2678 81.253 42.259ZM81.253 40.414C81.704 40.414 82.099 40.307 82.437 40.091C82.7861 39.8754 83.0683 39.5669 83.252 39.2C83.457 38.81 83.559 38.375 83.559 37.894C83.559 37.402 83.457 36.971 83.252 36.602C83.0683 36.2351 82.7861 35.9266 82.437 35.711C82.0857 35.4818 81.6734 35.364 81.254 35.373C80.792 35.373 80.388 35.485 80.039 35.711C79.688 35.9289 79.4015 36.2364 79.209 36.602C79.014 36.972 78.917 37.402 78.917 37.894C78.917 38.375 79.014 38.811 79.209 39.2C79.414 39.58 79.691 39.876 80.039 40.091C80.388 40.307 80.791 40.414 81.253 40.414ZM91.28 42.26C90.4952 42.2688 89.7218 42.0727 89.036 41.691C88.3785 41.32 87.828 40.7854 87.438 40.139C87.048 39.483 86.854 38.735 86.854 37.895C86.854 37.055 87.048 36.306 87.438 35.65C87.828 35.0036 88.3785 34.469 89.036 34.098C89.702 33.718 90.45 33.529 91.28 33.529C92.1 33.529 92.843 33.719 93.509 34.098C94.175 34.478 94.703 34.995 95.092 35.65C95.492 36.296 95.692 37.044 95.692 37.895C95.692 38.735 95.492 39.483 95.092 40.139C94.6961 40.7937 94.1362 41.3337 93.4677 41.7057C92.7991 42.0777 92.045 42.2687 91.28 42.26ZM91.28 40.415C91.731 40.415 92.126 40.308 92.464 40.092C92.8127 39.8763 93.0946 39.5678 93.278 39.201C93.483 38.811 93.586 38.376 93.586 37.895C93.586 37.403 93.483 36.972 93.278 36.603C93.0945 36.2363 92.8127 35.9278 92.464 35.712C92.1124 35.4826 91.6997 35.3648 91.28 35.374C90.82 35.374 90.414 35.486 90.066 35.712C89.715 35.9299 89.4285 36.2374 89.236 36.603C89.041 36.973 88.944 37.403 88.944 37.895C88.944 38.376 89.041 38.812 89.236 39.201C89.441 39.581 89.718 39.877 90.066 40.092C90.414 40.308 90.819 40.415 91.28 40.415ZM101.276 45.457C100.683 45.4625 100.095 45.3581 99.54 45.149C99.0264 44.9565 98.556 44.6642 98.156 44.289C97.7809 43.9365 97.4962 43.4988 97.326 43.013L99.201 42.306C99.324 42.696 99.565 43.008 99.924 43.243C100.293 43.489 100.743 43.613 101.276 43.613C101.686 43.613 102.045 43.535 102.352 43.382C102.67 43.228 102.916 43.002 103.09 42.705C103.264 42.418 103.351 42.07 103.351 41.66V39.754L103.736 40.215C103.469 40.6973 103.069 41.0924 102.583 41.353C102.101 41.609 101.553 41.737 100.938 41.737C100.159 41.737 99.463 41.557 98.848 41.199C98.2407 40.848 97.741 40.3376 97.403 39.723C97.055 39.098 96.88 38.397 96.88 37.618C96.88 36.828 97.055 36.127 97.403 35.512C97.7394 34.9092 98.2338 34.4096 98.833 34.067C99.437 33.709 100.124 33.529 100.892 33.529C101.517 33.529 102.065 33.662 102.537 33.929C103.018 34.185 103.418 34.559 103.736 35.051L103.459 35.558V33.714H105.365V41.66C105.365 42.388 105.186 43.038 104.827 43.612C104.478 44.1864 103.978 44.6544 103.382 44.965C102.777 45.293 102.076 45.457 101.276 45.457ZM101.184 39.877C101.614 39.877 101.988 39.785 102.306 39.601C102.634 39.406 102.89 39.139 103.075 38.801C103.259 38.463 103.351 38.074 103.351 37.633C103.351 37.203 103.254 36.819 103.059 36.48C102.884 36.142 102.618 35.8599 102.291 35.666C101.957 35.4669 101.573 35.3657 101.184 35.374C100.764 35.374 100.385 35.471 100.047 35.666C99.7105 35.8585 99.4336 36.1402 99.247 36.48C99.0587 36.8347 98.9637 37.2315 98.971 37.633C98.971 38.063 99.063 38.448 99.247 38.786C99.442 39.124 99.703 39.391 100.031 39.586C100.383 39.7837 100.781 39.8842 101.184 39.877ZM107.245 42.075V30.44H109.259V42.075H107.245ZM115.083 42.26C114.223 42.26 113.47 42.065 112.824 41.676C112.187 41.2956 111.666 40.7477 111.318 40.092C110.956 39.4113 110.771 38.6502 110.78 37.879C110.78 37.039 110.959 36.296 111.318 35.65C111.671 35.0112 112.185 34.4761 112.809 34.098C113.45 33.717 114.184 33.5201 114.93 33.529C115.586 33.529 116.159 33.637 116.651 33.852C117.153 34.067 117.579 34.364 117.927 34.744C118.275 35.123 118.542 35.558 118.726 36.05C118.911 36.532 119.003 37.054 119.003 37.618C119.003 37.761 118.993 37.91 118.972 38.064C118.962 38.217 118.936 38.35 118.895 38.464H112.44V36.926H117.758L116.805 37.649C116.897 37.177 116.872 36.757 116.728 36.389C116.604 36.0311 116.366 35.7233 116.052 35.512C115.744 35.297 115.37 35.189 114.93 35.189C114.532 35.1827 114.142 35.2951 113.808 35.512C113.48 35.717 113.229 36.024 113.055 36.434C112.891 36.834 112.829 37.321 112.87 37.894C112.829 38.407 112.896 38.863 113.07 39.262C113.254 39.652 113.521 39.954 113.869 40.169C114.228 40.384 114.638 40.492 115.099 40.492C115.56 40.492 115.949 40.395 116.267 40.2C116.595 40.005 116.851 39.744 117.036 39.416L118.665 40.216C118.501 40.615 118.245 40.969 117.896 41.276C117.531 41.5934 117.108 41.8385 116.651 41.998C116.148 42.1779 115.617 42.2666 115.083 42.26ZM123.43 42.075V30.625H127.703C128.482 30.625 129.168 30.768 129.763 31.055C130.347 31.314 130.84 31.7425 131.177 32.285C131.515 32.817 131.684 33.468 131.684 34.236C131.684 34.995 131.51 35.646 131.162 36.188C130.822 36.7223 130.337 37.1489 129.763 37.418C129.168 37.705 128.482 37.848 127.703 37.848H125.521V42.075H123.43ZM125.521 36.004H127.734C128.113 36.004 128.441 35.932 128.718 35.789C128.994 35.635 129.209 35.425 129.363 35.159C129.521 34.8774 129.601 34.5588 129.594 34.236C129.594 33.878 129.517 33.57 129.363 33.314C129.212 33.0506 128.988 32.8369 128.718 32.699C128.441 32.546 128.113 32.469 127.734 32.469H125.521V36.004ZM133.228 42.075V30.44H135.241V42.075H133.228ZM139.637 42.26C139.053 42.26 138.545 42.162 138.115 41.968C137.709 41.7933 137.362 41.5051 137.116 41.138C136.876 40.7562 136.753 40.3127 136.762 39.862C136.762 39.401 136.865 38.991 137.07 38.632C137.275 38.263 137.592 37.956 138.023 37.71C138.453 37.464 138.996 37.29 139.652 37.187L142.388 36.742V38.279L140.036 38.679C139.637 38.75 139.339 38.879 139.145 39.063C138.95 39.247 138.853 39.488 138.853 39.785C138.853 40.072 138.96 40.302 139.176 40.477C139.401 40.641 139.678 40.723 140.006 40.723C140.426 40.723 140.795 40.636 141.112 40.461C141.43 40.2869 141.691 40.0256 141.865 39.708C142.05 39.3909 142.145 39.0299 142.142 38.663V36.51C142.142 36.152 141.999 35.854 141.712 35.619C141.435 35.373 141.066 35.249 140.605 35.249C140.175 35.249 139.79 35.368 139.452 35.603C139.126 35.826 138.874 36.1421 138.73 36.51L137.085 35.71C137.249 35.27 137.505 34.891 137.854 34.574C138.221 34.2398 138.649 33.9785 139.114 33.804C139.615 33.6163 140.147 33.5227 140.682 33.528C141.368 33.528 141.973 33.656 142.496 33.913C142.993 34.1371 143.414 34.5 143.71 34.958C144.007 35.398 144.156 35.916 144.156 36.51V42.074H142.25V40.644L142.68 40.614C142.478 40.9582 142.217 41.265 141.911 41.521C141.614 41.757 141.276 41.941 140.897 42.074C140.489 42.2015 140.064 42.2649 139.637 42.26ZM147.031 45.472C146.806 45.472 146.585 45.452 146.37 45.411C146.168 45.3838 145.971 45.3265 145.786 45.241V43.551C145.919 43.581 146.078 43.612 146.262 43.643C146.457 43.673 146.636 43.689 146.8 43.689C147.262 43.689 147.595 43.581 147.799 43.366C148.015 43.151 148.204 42.869 148.368 42.521L148.922 41.23L148.891 42.92L145.248 33.714H147.415L149.967 40.507H149.198L151.734 33.714H153.917L150.274 42.921C150.085 43.4193 149.82 43.8856 149.49 44.304C149.183 44.684 148.824 44.97 148.414 45.164C148.015 45.37 147.554 45.472 147.031 45.472Z" fill="white"/>
</g>
<defs>
<clipPath id="clip0_82_1525">
<rect width="179" height="58" fill="white"/>
</clipPath>
</defs>
</svg>
